<svg width="32" height="32" viewBox="0 0 32 32" fill="none" xmlns="http://www.w3.org/2000/svg">
<g clip-path="url(#clip0_504_2)">
<path d="M31.2688 27.7313L23.7875 20.25C25.4888 17.7244 26.3281 14.5688 25.8788 11.2063C25.1125 5.48688 20.425 0.832509 14.7 0.107697C6.18813 -0.969366 -0.969371 6.18813 0.107754 14.7C0.832754 20.4275 5.48775 25.1188 11.2078 25.8813C14.5703 26.3306 17.7265 25.4915 20.2515 23.79L27.7328 31.2713C28.709 32.2475 30.2921 32.2475 31.2684 31.2713C32.2438 30.2938 32.2438 28.7063 31.2688 27.7313V27.7313ZM4.94375 13C4.94375 8.58876 8.5325 5.00001 12.9438 5.00001C17.355 5.00001 20.9438 8.58876 20.9438 13C20.9438 17.4113 17.355 21 12.9438 21C8.5325 21 4.94375 17.4125 4.94375 13V13Z" fill="#9AA0A6"/>
</g>
<defs>
<clipPath id="clip0_504_2">
<rect width="32" height="32" fill="white"/>
</clipPath>
</defs>
</svg>
